{
  "accessors": [
    {
      "bufferView": 2,
      "componentType": 5126,
      "count": 35796,
      "max": [
        3.6757469177246094,
        13.607135772705078,
        2.5364780426025391
      ],
      "min": [
        -4.7797431945800781,
        9.6217184066772461,
        -2.0456259250640869
      ],
      "type": "VEC3"
    },
    {
      "bufferView": 2,
      "byteOffset": 429552,
      "componentType": 5126,
      "count": 35796,
      "max": [
        0.99994796514511108,
        0.99998980760574341,
        0.99976623058319092
      ],
      "min": [
        -0.99999791383743286,
        -0.99987894296646118,
        -0.99989175796508789
      ],
      "type": "VEC3"
    },
    {
      "bufferView": 3,
      "componentType": 5126,
      "count": 35796,
      "max": [
        0.99998581409454346,
        0.99995553493499756,
        0.99972075223922729,
        1
      ],
      "min": [
        -0.9999847412109375,
        -0.99992978572845459,
        -0.99988251924514771,
        1
      ],
      "type": "VEC4"
    },
    {
      "bufferView": 1,
      "componentType": 5126,
      "count": 35796,
      "max": [
        0.99670499563217163,
        0.99998897314071655
      ],
      "min": [
        2.3000000510364771e-05,
        0.00011899999663000926
      ],
      "type": "VEC2"
    },
    {
      "bufferView": 0,
      "componentType": 5125,
      "count": 180000,
      "max": [
        35795
      ],
      "min": [
        0
      ],
      "type": "SCALAR"
    }
  ],
  "asset": {
    "extras": {
      "author": "Przemek Gesicki - DigitWorlds (https://sketchfab.com/lunar11)",
      "license": "CC-BY-NC-4.0 (http://creativecommons.org/licenses/by-nc/4.0/)",
      "source": "https://sketchfab.com/3d-models/adidas-predator-by-digitworldscom-18418ee05f9a4143a3a14a2e0e5facbf",
      "title": "Adidas Predator by DigitWorlds.com"
    },
    "generator": "Sketchfab-9.41.1",
    "version": "2.0"
  },
  "bufferViews": [
    {
      "buffer": 0,
      "byteLength": 720000,
      "byteOffset": 0,
      "name": "floatBufferViews",
      "target": 34963
    },
    {
      "buffer": 0,
      "byteLength": 286368,
      "byteOffset": 720000,
      "byteStride": 8,
      "name": "floatBufferViews",
      "target": 34962
    },
    {
      "buffer": 0,
      "byteLength": 859104,
      "byteOffset": 1006368,
      "byteStride": 12,
      "name": "floatBufferViews",
      "target": 34962
    },
    {
      "buffer": 0,
      "byteLength": 572736,
      "byteOffset": 1865472,
      "byteStride": 16,
      "name": "floatBufferViews",
      "target": 34962
    }
  ],
  "buffers": [
    {
      "byteLength": 2438208,
      "uri": "scene.bin"
    }
  ],
  "images": [
    {
      "uri": "textures/PBR_predator_baseColor.jpeg"
    },
    {
      "uri": "textures/PBR_predator_metallicRoughness.png"
    },
    {
      "uri": "textures/PBR_predator_normal.jpeg"
    }
  ],
  "materials": [
    {
      "doubleSided": true,
      "name": "PBR_predator",
      "normalTexture": {
        "index": 2,
        "scale": 0.70522205828587115,
        "texCoord": 0
      },
      "pbrMetallicRoughness": {
        "baseColorFactor": [
          1,
          1,
          1,
          1
        ],
        "baseColorTexture": {
          "index": 0,
          "texCoord": 0
        },
        "metallicFactor": 0.46655407685172789,
        "metallicRoughnessTexture": {
          "index": 1,
          "texCoord": 0
        },
        "roughnessFactor": 0.5293614403870287
      }
    }
  ],
  "meshes": [
    {
      "primitives": [
        {
          "attributes": {
            "NORMAL": 1,
            "POSITION": 0,
            "TANGENT": 2,
            "TEXCOORD_0": 3
          },
          "indices": 4,
          "material": 0,
          "mode": 4
        }
      ]
    }
  ],
  "nodes": [
    {
      "children": [
        1
      ],
      "name": "RootNode (gltf orientation matrix)",
      "rotation": [
        -0.70710678118654746,
        -0,
        -0,
        0.70710678118654757
      ]
    },
    {
      "children": [
        2
      ],
      "matrix": [
        0.99988400936126709,
        1.7347234759768071e-18,
        0.015229524113237858,
        0,
        0.010628613643348217,
        0.71619975566864014,
        -0.69781440496444702,
        0,
        -0.010907381772994995,
        0.697895348072052,
        0.71611666679382324,
        0,
        -0.12083239108324051,
        2.9271581172943115,
        8.6148166656494141,
        1
      ],
      "name": "RootNode (model correction matrix)"
    },
    {
      "children": [
        3
      ],
      "name": "PBR_predator.obj.cleaner.materialmerger.gles"
    },
    {
      "mesh": 0,
      "name": ""
    }
  ],
  "samplers": [
    {
      "magFilter": 9729,
      "minFilter": 9987,
      "wrapS": 10497,
      "wrapT": 10497
    }
  ],
  "scene": 0,
  "scenes": [
    {
      "name": "OSG_Scene",
      "nodes": [
        0
      ]
    }
  ],
  "textures": [
    {
      "sampler": 0,
      "source": 0
    },
    {
      "sampler": 0,
      "source": 1
    },
    {
      "sampler": 0,
      "source": 2
    }
  ]
}

