{
  "accessors": [
    {
      "bufferView": 2,
      "componentType": 5126,
      "count": 40,
      "max": [
        0.014967599883675575,
        0.48877799510955811,
        0.090617500245571136
      ],
      "min": [
        -0.010283400304615498,
        0.47593900561332703,
        0.083452500402927399
      ],
      "type": "VEC3"
    },
    {
      "bufferView": 2,
      "byteOffset": 480,
      "componentType": 5126,
      "count": 40,
      "max": [
        0.96445423364639282,
        0.96098238229751587,
        0.9987141489982605
      ],
      "min": [
        -0.9661983847618103,
        -0.93786978721618652,
        -0.069450020790100098
      ],
      "type": "VEC3"
    },
    {
      "bufferView": 3,
      "componentType": 5126,
      "count": 40,
      "max": [
        0.95936328172683716,
        0.32951739430427551,
        0.99930363893508911,
        1
      ],
      "min": [
        -0.07443709671497345,
        -0.51021271944046021,
        -0.99959945678710938,
        1
      ],
      "type": "VEC4"
    },
    {
      "bufferView": 1,
      "componentType": 5126,
      "count": 40,
      "max": [
        0.99654102325439453,
        0.99104398488998413
      ],
      "min": [
        0.89988201856613159,
        0.88573300838470459
      ],
      "type": "VEC2"
    },
    {
      "bufferView": 0,
      "componentType": 5125,
      "count": 60,
      "max": [
        39
      ],
      "min": [
        0
      ],
      "type": "SCALAR"
    },
    {
      "bufferView": 2,
      "byteOffset": 960,
      "componentType": 5126,
      "count": 32,
      "max": [
        0.025526599958539009,
        -0.52950197458267212,
        0.2288070023059845
      ],
      "min": [
        0.017135700210928917,
        -0.55340301990509033,
        0.21764899790287018
      ],
      "type": "VEC3"
    },
    {
      "bufferView": 2,
      "byteOffset": 1344,
      "componentType": 5126,
      "count": 32,
      "max": [
        0.99760764837265015,
        0.99409765005111694,
        0.97161173820495605
      ],
      "min": [
        -0.99768966436386108,
        -0.99220633506774902,
        -0.11539504677057266
      ],
      "type": "VEC3"
    },
    {
      "bufferView": 3,
      "byteOffset": 640,
      "componentType": 5126,
      "count": 32,
      "max": [
        5.7083234423771501e-05,
        0.97645550966262817,
        0.25250619649887085,
        1
      ],
      "min": [
        -0.99914515018463135,
        -0.047327779233455658,
        -0.00012387603055685759,
        1
      ],
      "type": "VEC4"
    },
    {
      "bufferView": 1,
      "byteOffset": 320,
      "componentType": 5126,
      "count": 32,
      "max": [
        0.1281139999628067,
        0.65488600730895996
      ],
      "min": [
        0.037449400871992111,
        0.52985298633575439
      ],
      "type": "VEC2"
    },
    {
      "bufferView": 0,
      "byteOffset": 240,
      "componentType": 5125,
      "count": 48,
      "max": [
        31
      ],
      "min": [
        0
      ],
      "type": "SCALAR"
    },
    {
      "bufferView": 2,
      "byteOffset": 1728,
      "componentType": 5126,
      "count": 40,
      "max": [
        0.017774200066924095,
        -0.52591997385025024,
        0.22981500625610352
      ],
      "min": [
        0.010369000025093555,
        -0.55346798896789551,
        0.21766600012779236
      ],
      "type": "VEC3"
    },
    {
      "bufferView": 2,
      "byteOffset": 2208,
      "componentType": 5126,
      "count": 40,
      "max": [
        0.99921709299087524,
        0.99496275186538696,
        0.9697832465171814
      ],
      "min": [
        -0.99862122535705566,
        -0.99335110187530518,
        -0.11533505469560623
      ],
      "type": "VEC3"
    },
    {
      "bufferView": 3,
      "byteOffset": 1152,
      "componentType": 5126,
      "count": 40,
      "max": [
        3.3633743441896513e-05,
        0.98030805587768555,
        0.99999731779098511,
        1
      ],
      "min": [
        -0.99999195337295532,
        -0.044773496687412262,
        -0.994972825050354,
        1
      ],
      "type": "VEC4"
    },
    {
      "bufferView": 1,
      "byteOffset": 576,
      "componentType": 5126,
      "count": 40,
      "max": [
        0.12499900162220001,
        0.71982097625732422
      ],
      "min": [
        0.035238601267337799,
        0.54842597246170044
      ],
      "type": "VEC2"
    },
    {
      "bufferView": 0,
      "byteOffset": 432,
      "componentType": 5125,
      "count": 60,
      "max": [
        39
      ],
      "min": [
        0
      ],
      "type": "SCALAR"
    },
    {
      "bufferView": 2,
      "byteOffset": 2688,
      "componentType": 5126,
      "count": 242,
      "max": [
        0.027198400348424911,
        -0.54031699895858765,
        0.22742399573326111
      ],
      "min": [
        0.0096497498452663422,
        -0.5554320216178894,
        0.21855400502681732
      ],
      "type": "VEC3"
    },
    {
      "bufferView": 2,
      "byteOffset": 5592,
      "componentType": 5126,
      "count": 242,
      "max": [
        0.99734485149383545,
        0.99684733152389526,
        0.97773498296737671
      ],
      "min": [
        -0.99755012989044189,
        -0.99673497676849365,
        -0.97751212120056152
      ],
      "type": "VEC3"
    },
    {
      "bufferView": 3,
      "byteOffset": 1792,
      "componentType": 5126,
      "count": 242,
      "max": [
        0.00042371152085252106,
        0.97778773307800293,
        1,
        1
      ],
      "min": [
        -0.99993610382080078,
        -0.97756344079971313,
        -0.23821200430393219,
        1
      ],
      "type": "VEC4"
    },
    {
      "bufferView": 1,
      "byteOffset": 896,
      "componentType": 5126,
      "count": 242,
      "max": [
        0.12697100639343262,
        0.75180202722549438
      ],
      "min": [
        0.026593999937176704,
        0.50127798318862915
      ],
      "type": "VEC2"
    },
    {
      "bufferView": 0,
      "byteOffset": 672,
      "componentType": 5125,
      "count": 366,
      "max": [
        241
      ],
      "min": [
        0
      ],
      "type": "SCALAR"
    },
    {
      "bufferView": 2,
      "byteOffset": 8496,
      "componentType": 5126,
      "count": 304,
      "max": [
        0.0084697697311639786,
        0.47232800722122192,
        0.095664799213409424
      ],
      "min": [
        -0.0089875403791666031,
        0.42425599694252014,
        0.0913223996758461
      ],
      "type": "VEC3"
    },
    {
      "bufferView": 2,
      "byteOffset": 12144,
      "componentType": 5126,
      "count": 304,
      "max": [
        0.9998924732208252,
        0.99991589784622192,
        0.9999883770942688
      ],
      "min": [
        -0.99990999698638916,
        -0.99994122982025146,
        -0.99997037649154663
      ],
      "type": "VEC3"
    },
    {
      "bufferView": 3,
      "byteOffset": 5664,
      "componentType": 5126,
      "count": 304,
      "max": [
        1,
        0.064482659101486206,
        1,
        1
      ],
      "min": [
        -0.078799694776535034,
        -0.063107892870903015,
        -0.9999924898147583,
        1
      ],
      "type": "VEC4"
    },
    {
      "bufferView": 1,
      "byteOffset": 2832,
      "componentType": 5126,
      "count": 304,
      "max": [
        0.92760801315307617,
        0.90261101722717285
      ],
      "min": [
        0.026167800650000572,
        0.53186798095703125
      ],
      "type": "VEC2"
    },
    {
      "bufferView": 0,
      "byteOffset": 2136,
      "componentType": 5125,
      "count": 456,
      "max": [
        303
      ],
      "min": [
        0
      ],
      "type": "SCALAR"
    },
    {
      "bufferView": 2,
      "byteOffset": 15792,
      "componentType": 5126,
      "count": 234,
      "max": [
        0.013456500135362148,
        0.4855949878692627,
        0.095728203654289246
      ],
      "min": [
        -0.010538900271058083,
        0.46086698770523071,
        0.087573200464248657
      ],
      "type": "VEC3"
    },
    {
      "bufferView": 2,
      "byteOffset": 18600,
      "componentType": 5126,
      "count": 234,
      "max": [
        0.99932974576950073,
        0.9996345043182373,
        0.99922710657119751
      ],
      "min": [
        -0.99990034103393555,
        -0.99903190135955811,
        -0.99788153171539307
      ],
      "type": "VEC3"
    },
    {
      "bufferView": 3,
      "byteOffset": 10528,
      "componentType": 5126,
      "count": 234,
      "max": [
        0.99988007545471191,
        0.97354930639266968,
        0.99998629093170166,
        1
      ],
      "min": [
        -0.84341561794281006,
        -0.025611260905861855,
        -0.99999594688415527,
        1
      ],
      "type": "VEC4"
    },
    {
      "bufferView": 1,
      "byteOffset": 5264,
      "componentType": 5126,
      "count": 234,
      "max": [
        0.92045402526855469,
        0.9073830246925354
      ],
      "min": [
        0.045176099985837936,
        0.37716999650001526
      ],
      "type": "VEC2"
    },
    {
      "bufferView": 0,
      "byteOffset": 3960,
      "componentType": 5125,
      "count": 354,
      "max": [
        233
      ],
      "min": [
        0
      ],
      "type": "SCALAR"
    },
    {
      "bufferView": 2,
      "byteOffset": 21408,
      "componentType": 5126,
      "count": 76,
      "max": [
        0.0047217500396072865,
        0.48521599173545837,
        0.097755797207355499
      ],
      "min": [
        -0.0016409700037911534,
        0.46272298693656921,
        0.090870700776576996
      ],
      "type": "VEC3"
    },
    {
      "bufferView": 2,
      "byteOffset": 22320,
      "componentType": 5126,
      "count": 76,
      "max": [
        0.99967509508132935,
        0.99985849857330322,
        0.9965319037437439
      ],
      "min": [
        -0.99966162443161011,
        -0.99700337648391724,
        -0.99306190013885498
      ],
      "type": "VEC3"
    },
    {
      "bufferView": 3,
      "byteOffset": 14272,
      "componentType": 5126,
      "count": 76,
      "max": [
        0.99988329410552979,
        0.001530169858597219,
        0.99999499320983887,
        1
      ],
      "min": [
        -0.01479964517056942,
        -0.024297241121530533,
        -0.99999403953552246,
        1
      ],
      "type": "VEC4"
    },
    {
      "bufferView": 1,
      "byteOffset": 7136,
      "componentType": 5126,
      "count": 76,
      "max": [
        0.9008449912071228,
        0.91224902868270874
      ],
      "min": [
        0.060963600873947144,
        0.46210101246833801
      ],
      "type": "VEC2"
    },
    {
      "bufferView": 0,
      "byteOffset": 5376,
      "componentType": 5125,
      "count": 114,
      "max": [
        75
      ],
      "min": [
        0
      ],
      "type": "SCALAR"
    },
    {
      "bufferView": 2,
      "byteOffset": 23232,
      "componentType": 5126,
      "count": 4993,
      "max": [
        1,
        0.55824500322341919,
        0.24834099411964417
      ],
      "min": [
        -1,
        -0.55824500322341919,
        -0.24834099411964417
      ],
      "type": "VEC3"
    },
    {
      "bufferView": 2,
      "byteOffset": 83148,
      "componentType": 5126,
      "count": 4993,
      "max": [
        0.9996342658996582,
        0.99413400888442993,
        0.99992388486862183
      ],
      "min": [
        -0.9985467791557312,
        -0.99909549951553345,
        -0.99999475479125977
      ],
      "type": "VEC3"
    },
    {
      "bufferView": 3,
      "byteOffset": 15488,
      "componentType": 5126,
      "count": 4993,
      "max": [
        0.99999213218688965,
        0.99989926815032959,
        0.99986910820007324,
        1
      ],
      "min": [
        -0.99999964237213135,
        -0.99931436777114868,
        -0.99984556436538696,
        -1
      ],
      "type": "VEC4"
    },
    {
      "bufferView": 1,
      "byteOffset": 7744,
      "componentType": 5126,
      "count": 4993,
      "max": [
        0.90705299377441406,
        0.99622398614883423
      ],
      "min": [
        0.018985999748110771,
        0.0096638798713684082
      ],
      "type": "VEC2"
    },
    {
      "bufferView": 0,
      "byteOffset": 5832,
      "componentType": 5125,
      "count": 27525,
      "max": [
        4992
      ],
      "min": [
        0
      ],
      "type": "SCALAR"
    }
  ],
  "asset": {
    "extras": {
      "author": "PatriciaDobbins (https://sketchfab.com/PatriciaDobbins)",
      "license": "CC-BY-4.0 (http://creativecommons.org/licenses/by/4.0/)",
      "source": "https://sketchfab.com/3d-models/adidas-jacket-097bc64010ee426bbb505b9877feba6a",
      "title": "Adidas Jacket"
    },
    "generator": "Sketchfab-7.68.0",
    "version": "2.0"
  },
  "bufferViews": [
    {
      "buffer": 0,
      "byteLength": 115932,
      "byteOffset": 0,
      "name": "floatBufferViews",
      "target": 34963
    },
    {
      "buffer": 0,
      "byteLength": 47688,
      "byteOffset": 115932,
      "byteStride": 8,
      "name": "floatBufferViews",
      "target": 34962
    },
    {
      "buffer": 0,
      "byteLength": 143064,
      "byteOffset": 163620,
      "byteStride": 12,
      "name": "floatBufferViews",
      "target": 34962
    },
    {
      "buffer": 0,
      "byteLength": 95376,
      "byteOffset": 306684,
      "byteStride": 16,
      "name": "floatBufferViews",
      "target": 34962
    }
  ],
  "buffers": [
    {
      "byteLength": 402060,
      "uri": "scene.bin"
    }
  ],
  "images": [
    {
      "uri": "textures/zdxvz1_Jacket_baseColor.jpeg"
    },
    {
      "uri": "textures/zdxvz1_Jacket_metallicRoughness.png"
    },
    {
      "uri": "textures/zdxvz1_Jacket_normal.png"
    }
  ],
  "materials": [
    {
      "doubleSided": true,
      "name": "zdxvz1_Jacket",
      "normalTexture": {
        "index": 2,
        "scale": 1,
        "texCoord": 0
      },
      "occlusionTexture": {
        "index": 1,
        "strength": 1,
        "texCoord": 0
      },
      "pbrMetallicRoughness": {
        "baseColorFactor": [
          1,
          1,
          1,
          1
        ],
        "baseColorTexture": {
          "index": 0,
          "texCoord": 0
        },
        "metallicFactor": 1,
        "metallicRoughnessTexture": {
          "index": 1,
          "texCoord": 0
        },
        "roughnessFactor": 1
      }
    }
  ],
  "meshes": [
    {
      "name": "defaultMaterial",
      "primitives": [
        {
          "attributes": {
            "NORMAL": 1,
            "POSITION": 0,
            "TANGENT": 2,
            "TEXCOORD_0": 3
          },
          "indices": 4,
          "material": 0,
          "mode": 4
        }
      ]
    },
    {
      "name": "defaultMaterial",
      "primitives": [
        {
          "attributes": {
            "NORMAL": 6,
            "POSITION": 5,
            "TANGENT": 7,
            "TEXCOORD_0": 8
          },
          "indices": 9,
          "material": 0,
          "mode": 4
        }
      ]
    },
    {
      "name": "defaultMaterial",
      "primitives": [
        {
          "attributes": {
            "NORMAL": 11,
            "POSITION": 10,
            "TANGENT": 12,
            "TEXCOORD_0": 13
          },
          "indices": 14,
          "material": 0,
          "mode": 4
        }
      ]
    },
    {
      "name": "defaultMaterial",
      "primitives": [
        {
          "attributes": {
            "NORMAL": 16,
            "POSITION": 15,
            "TANGENT": 17,
            "TEXCOORD_0": 18
          },
          "indices": 19,
          "material": 0,
          "mode": 4
        }
      ]
    },
    {
      "name": "defaultMaterial",
      "primitives": [
        {
          "attributes": {
            "NORMAL": 21,
            "POSITION": 20,
            "TANGENT": 22,
            "TEXCOORD_0": 23
          },
          "indices": 24,
          "material": 0,
          "mode": 4
        }
      ]
    },
    {
      "name": "defaultMaterial",
      "primitives": [
        {
          "attributes": {
            "NORMAL": 26,
            "POSITION": 25,
            "TANGENT": 27,
            "TEXCOORD_0": 28
          },
          "indices": 29,
          "material": 0,
          "mode": 4
        }
      ]
    },
    {
      "name": "defaultMaterial",
      "primitives": [
        {
          "attributes": {
            "NORMAL": 31,
            "POSITION": 30,
            "TANGENT": 32,
            "TEXCOORD_0": 33
          },
          "indices": 34,
          "material": 0,
          "mode": 4
        }
      ]
    },
    {
      "name": "defaultMaterial",
      "primitives": [
        {
          "attributes": {
            "NORMAL": 36,
            "POSITION": 35,
            "TANGENT": 37,
            "TEXCOORD_0": 38
          },
          "indices": 39,
          "material": 0,
          "mode": 4
        }
      ]
    }
  ],
  "nodes": [
    {
      "children": [
        1
      ],
      "name": "RootNode (gltf orientation matrix)",
      "rotation": [
        -0.70710678118654746,
        -0,
        -0,
        0.70710678118654757
      ]
    },
    {
      "children": [
        2
      ],
      "name": "RootNode (model correction matrix)"
    },
    {
      "children": [
        3,
        5,
        7,
        9,
        11,
        13,
        15,
        17
      ],
      "matrix": [
        1,
        0,
        0,
        0,
        0,
        -4.3711390063094768e-08,
        0.999999999999999,
        0,
        0,
        -0.999999999999999,
        -4.3711390063094768e-08,
        0,
        0,
        0,
        0,
        1
      ],
      "name": "Collada visual scene group"
    },
    {
      "children": [
        4
      ],
      "name": "zdxvz1:polySurface17"
    },
    {
      "mesh": 0,
      "name": "defaultMaterial"
    },
    {
      "children": [
        6
      ],
      "name": "zdxvz1:polySurface16"
    },
    {
      "mesh": 1,
      "name": "defaultMaterial"
    },
    {
      "children": [
        8
      ],
      "name": "zdxvz1:polySurface15"
    },
    {
      "mesh": 2,
      "name": "defaultMaterial"
    },
    {
      "children": [
        10
      ],
      "name": "zdxvz1:polySurface14"
    },
    {
      "mesh": 3,
      "name": "defaultMaterial"
    },
    {
      "children": [
        12
      ],
      "name": "zdxvz1:polySurface12"
    },
    {
      "mesh": 4,
      "name": "defaultMaterial"
    },
    {
      "children": [
        14
      ],
      "name": "zdxvz1:polySurface11"
    },
    {
      "mesh": 5,
      "name": "defaultMaterial"
    },
    {
      "children": [
        16
      ],
      "name": "zdxvz1:polySurface10"
    },
    {
      "mesh": 6,
      "name": "defaultMaterial"
    },
    {
      "children": [
        18
      ],
      "name": "zdxvz1:Jacket_Low"
    },
    {
      "mesh": 7,
      "name": "defaultMaterial"
    }
  ],
  "samplers": [
    {
      "magFilter": 9729,
      "minFilter": 9987,
      "wrapS": 10497,
      "wrapT": 10497
    }
  ],
  "scene": 0,
  "scenes": [
    {
      "name": "OSG_Scene",
      "nodes": [
        0
      ]
    }
  ],
  "textures": [
    {
      "sampler": 0,
      "source": 0
    },
    {
      "sampler": 0,
      "source": 1
    },
    {
      "sampler": 0,
      "source": 2
    }
  ]
}

